<svg xmlns="http://www.w3.org/2000/svg" version="1.1" width="64px" height="64px">
	<path d="m2 33c1.4907-0.74536 6-1 6-1h48s4.5093 0.25464 6 1 2 3 2 3v12h-64v-12s0.50929-2.2546 2-3z" fill="#364e59"/>
	<path d="m10 10c1.4907-1.4907 6-2 6-2h32s4.5093 0.50929 6 2 2 6 2 6v16h-48v-16s0.50929-4.5093 2-6z" fill="#fff"/>
	<path d="m62 63c-1.4907 0.74536-6 1-6 1h-48s-4.5093-0.25464-6-1-2-3-2-3v-12h64v12s-0.50929 2.2546-2 3z" fill="#364e59"/>
	<g fill-rule="evenodd">
		<path d="m19.004 45.983 21.533 10.017 7.4626-2.9457-21.388-7.3441z" fill="#afafde"/>
		<path d="m19.004 18.111v27.872l7.6076-0.27276v-23.763z" fill="#353564"/>
		<path d="m26.612 21.948 21.388-8.8985v40.005l-21.388-7.3441z" fill="#e9e9ff"/>
		<path d="m19.004 18.111 21.533-15.325 7.4626 10.264-21.388 8.8985z" fill="#4d4d9f"/>
		<path d="m40.537 2.7856v53.214l7.4626-2.9457v-40.005z" fill="#9cf"/>
		<path d="m19.004 18.111 21.533-15.325v53.214l-21.533-10.017z" fill="#09f"/>
	</g>
	<path d="m26 27 8-5v16l-8-3z" fill="none" stroke="#000" stroke-width=".1"/>
	<path d="m26 27h6v8h-6z" fill="none" stroke="#000" stroke-width=".1"/>
	<path d="m32 27 2-1" fill="none" stroke="#000" stroke-width=".1"/>
	<path d="m32 35 2 1" fill="none" stroke="#000" stroke-width=".1"/>
	<path d="m26.207 31.046v-3.8182h5.6364v7.6364h-5.6364v-3.8182z" fill="#9cf"/>
	<path d="m32 32h2" fill="none" stroke="#000" stroke-width=".1"/>
	<path d="m32.888 35.266-0.68182-0.35994v-2.7186h1.6364v1.7273c0 0.95-0.06136 1.7237-0.13636 1.7192-0.075-0.0044-0.44318-0.17001-0.81818-0.36798z" fill="#364e59"/>
	<path d="m32.207 29.464v-2.3599l0.72003-0.36733c0.39602-0.20203 0.7642-0.36733 0.81818-0.36733s0.09815 1.2273 0.09815 2.7273v2.7273h-1.6364v-2.3599z" fill="#fff"/>
	<path d="m26.585 26.842c0.14646-0.13983 7.1007-4.4731 7.1787-4.4731 0.04339 0 0.07889 0.80114 0.07889 1.7803v1.7803l-1.004 0.49242c-0.95266 0.46723-1.1403 0.49242-3.6667 0.49242-1.4645 0-2.6285-0.03255-2.5869-0.07233z" fill="#badaff"/>
	<path d="m30.335 36.486-3.4167-1.2992 2.4167-0.05379c2.3113-0.05145 2.4622-0.03215 3.4621 0.44252l1.0455 0.49631v0.87566c0 0.48161-0.02045 0.86713-0.04545 0.85671s-1.583-0.6036-3.4621-1.3182z" fill="#badaff"/>
</svg>